<svg xmlns="http://www.w3.org/2000/svg" fill="none" viewBox="0 0 1440 1440">
    <path fill="#fff" d="m233 250 358 516 130 185 174-250c195-280 314-453 314-454H230l3 3Zm921 28-70 101a642570 642570 0 0 0-362 522c-2 2 14 25-237-337L314 318l-30-43h872l-2 3Z" />
    <path fill="#fff" d="m346 304 103 149c1 0 28-38 91-131l13-19H449c-83 0-104 0-103 1Zm195 42-57 84c-18 26-28 41-27 42l124 173c2 2-5 12 153-220l82-121-32-1h-31l-35 51-85 124-51 75c-1 1-8-7-32-40l-30-43 9-13 105-153c1-1-11-1-31-1h-32l-30 43Zm284-14L628 618c-21 31-34 51-33 52l59 87 59 85 54-71 88-116 33-44h-67l-52 70-54 69c-1 0-14-18-29-41l-28-40 13-20 125-181 113-164-32-1h-32l-20 29Zm316 755v77h42v-155h-42v78Zm-866-20c0 43 0 48 2 56 6 20 20 32 42 39 12 4 37 3 49-1 23-8 38-25 41-48l2-52v-42h-43v43c0 45-1 51-6 58-7 11-26 12-37 3l-6-8c-2-5-2-7-3-51v-45h-41v48Zm376 24v72h104l1-17v-18h-61v-109h-44v72Zm-153-40c-9 3-13 6-18 12l-5 5v-17h-42v112h42v-30c0-25 0-31 2-36 4-9 14-14 23-10s9 7 9 44v32h42v-41c0-37-1-41-3-48-6-15-18-23-35-24l-15 1Zm306 0c-29 8-44 32-41 66 1 12 8 26 16 33 16 14 44 19 68 11 8-2 19-8 23-13l3-3-10-11c-10-9-11-10-13-9-17 12-35 12-42 0l-3-6c0-1 11-2 38-2h37v-8c0-24-11-44-28-53-12-6-34-8-48-5Zm28 30c3 2 7 9 7 14 0 2-1 2-18 2-19 0-19 0-14-9 5-10 16-13 25-7Zm217-30c-9 2-22 8-28 15-4 3-8 10-11 15-3 8-4 11-4 23-1 28 8 45 30 55 15 7 37 8 54 2 9-3 12-5 20-11 7-6 7-5-8-18-8-8-9-8-11-6-9 8-25 10-34 5-4-2-9-9-9-12 0-1 10-2 37-2h38v-8c0-24-11-44-28-53-12-6-31-8-46-5Zm22 28c6 2 10 9 10 15v3h-17c-16 0-17 0-17-2 0-4 6-13 10-15 6-3 8-3 14-1Zm-190-25 20 56 20 53 21 1h22l4-10 37-102-20-1h-21l-2 6-10 37-9 29a919 919 0 0 1-20-70c0-2-3-2-22-2h-21l1 3Zm-309 45v13h56v-25h-56v12Z" />
</svg>