<?xml version="1.0" encoding="UTF-8"?>
<svg xmlns="http://www.w3.org/2000/svg" xmlns:xlink="http://www.w3.org/1999/xlink" viewBox="0 0 240 240" width="240px" height="240px">
<g id="surface100715534">
<path style=" stroke:none;fill-rule:nonzero;fill:#6568c5;fill-opacity:1;" d="M 200 60 C 200 60 177.074219 42.058594 150 40 L 147.558594 44.878906 C 172.039062 50.871094 183.269531 59.453125 195 70 C 174.773438 59.675781 154.804688 50 120 50 C 85.195312 50 65.226562 59.675781 45 70 C 56.730469 59.453125 70.089844 49.925781 92.441406 44.878906 L 90 40 C 61.59375 42.683594 40 60 40 60 C 40 60 14.394531 97.125 10 170 C 35.808594 199.765625 75 200 75 200 L 83.195312 189.074219 C 69.285156 184.238281 53.574219 175.605469 40 160 C 56.191406 172.25 80.625 185 120 185 C 159.375 185 183.808594 172.25 200 160 C 186.425781 175.605469 170.714844 184.238281 156.804688 189.074219 L 165 200 C 165 200 204.191406 199.765625 230 170 C 225.605469 97.125 200 60 200 60 Z M 87.5 150 C 77.835938 150 70 141.042969 70 130 C 70 118.953125 77.835938 110 87.5 110 C 97.164062 110 105 118.953125 105 130 C 105 141.042969 97.164062 150 87.5 150 Z M 152.5 150 C 142.835938 150 135 141.042969 135 130 C 135 118.953125 142.835938 110 152.5 110 C 162.164062 110 170 118.953125 170 130 C 170 141.042969 162.164062 150 152.5 150 Z M 152.5 150 "/>
</g>
</svg>